<svg width="16" height="16" viewBox="0 0 16 16" fill="none" xmlns="http://www.w3.org/2000/svg">
<path fill-rule="evenodd" clip-rule="evenodd" d="M15.68 8.18178C15.68 7.6145 15.6291 7.06905 15.5346 6.54541H8V9.63996H12.3055C12.12 10.64 11.5564 11.4872 10.7091 12.0545V14.0618H13.2946C14.8073 12.6691 15.68 10.6181 15.68 8.18178Z" fill="#4285F4"/>
<path fill-rule="evenodd" clip-rule="evenodd" d="M7.99969 16C10.1597 16 11.9706 15.2837 13.2942 14.0618L10.7088 12.0546C9.99242 12.5346 9.07606 12.8182 7.99969 12.8182C5.91605 12.8182 4.15241 11.4109 3.52332 9.52002H0.850586V11.5928C2.16695 14.2073 4.87241 16 7.99969 16Z" fill="#34A853"/>
<path fill-rule="evenodd" clip-rule="evenodd" d="M3.52364 9.51996C3.36364 9.03996 3.27273 8.52724 3.27273 7.99996C3.27273 7.47269 3.36364 6.95996 3.52364 6.47996V4.40723H0.850911C0.309092 5.48723 0 6.70905 0 7.99996C0 9.29087 0.309092 10.5127 0.850911 11.5927L3.52364 9.51996Z" fill="#FBBC05"/>
<path fill-rule="evenodd" clip-rule="evenodd" d="M7.99969 3.18183C9.17424 3.18183 10.2288 3.58546 11.0579 4.37819L13.3524 2.08364C11.967 0.792729 10.1561 0 7.99969 0C4.87241 0 2.16695 1.79273 0.850586 4.40728L3.52332 6.48001C4.15241 4.5891 5.91605 3.18183 7.99969 3.18183Z" fill="#EA4335"/>
</svg>
